<svg height="512" viewBox="0 0 512 512" width="512" xmlns="http://www.w3.org/2000/svg"><g><g><path d="m120 16h272v120h-272z" fill="#a0815c"/><path d="m144 136h24v144h-24z" fill="#5f4d37"/><path d="m120 320h32v176h-32z" fill="#5f4d37"/><path d="m360 320h32v176h-32z" fill="#5f4d37"/><path d="m328 136h32v144h-32z" fill="#5f4d37"/><g fill="#a0815c"><path d="m112 280h288v40h-288z"/><path d="m152 416h208v24h-208z"/><circle cx="144" cy="40" r="8"/><circle cx="144" cy="112" r="8"/><circle cx="368" cy="40" r="8"/><circle cx="368" cy="112" r="8"/></g></g><g><path d="m400 272h-24v-128h16a8 8 0 0 0 8-8v-120a8 8 0 0 0 -8-8h-272a8 8 0 0 0 -8 8v120a8 8 0 0 0 8 8h16v128h-24a8 8 0 0 0 -8 8v40a8 8 0 0 0 8 8v168a8 8 0 0 0 8 8h32a8 8 0 0 0 8-8v-48h192v48a8 8 0 0 0 8 8h32a8 8 0 0 0 8-8v-168a8 8 0 0 0 8-8v-40a8 8 0 0 0 -8-8zm-272-144v-104h256v104zm232 16v128h-16v-128zm-32 0v128h-144v-128zm-160 0v128h-16v-128zm-24 344h-16v-160h16zm208-56h-192v-8h192zm0-24h-192v-80h192zm32 80h-16v-160h16zm8-176h-272v-24h272z"/><circle cx="144" cy="40" r="8"/><circle cx="144" cy="112" r="8"/><circle cx="368" cy="40" r="8"/><circle cx="368" cy="112" r="8"/></g></g></svg>